<?xml version="1.0" encoding="UTF-8"?>
<!-- Generator: visioncortex VTracer -->
<svg id="svg" version="1.1" xmlns="http://www.w3.org/2000/svg" style="display: block; --darkreader-inline-bgimage: none;" viewBox="0 0 288 288"><path d="M0,0 L162,0 L162,9 L171,9 L171,45 L180,45 L180,63 L189,63 L189,108 L180,108 L180,135 L171,135 L171,189 L189,189 L189,207 L180,207 L180,216 L90,216 L90,225 L9,225 L9,216 L0,216 L0,207 L-9,207 L-9,153 L0,153 L0,144 L9,144 L9,135 L18,135 L18,117 L27,117 L27,108 L36,108 L36,72 L27,72 L27,45 L18,45 L18,36 L9,36 L9,27 L-9,27 L-9,36 L-27,36 L-27,18 L-18,18 L-18,9 L0,9 Z " transform="translate(54,36)" style="fill: rgb(234, 191, 150); --darkreader-inline-fill: #e8b88b;" data-darkreader-inline-fill=""/><path d="M0,0 L162,0 L162,9 L171,9 L171,18 L162,18 L162,27 L153,27 L153,36 L144,36 L144,27 L135,27 L135,18 L117,18 L117,9 L99,9 L99,18 L72,18 L72,9 L54,9 L54,18 L27,18 L27,27 L-9,27 L-9,36 L-27,36 L-27,18 L-18,18 L-18,9 L0,9 Z " transform="translate(54,36)" style="fill: rgb(238, 195, 154); --darkreader-inline-fill: #ecbb8d;" data-darkreader-inline-fill=""/><path d="M0,0 L18,0 L18,9 L45,9 L45,0 L63,0 L63,9 L81,9 L81,27 L63,27 L63,36 L36,36 L36,27 L18,27 L18,36 L0,36 L0,27 L-9,27 L-9,36 L-18,36 L-18,18 L-9,18 L-9,9 L0,9 Z " transform="translate(108,45)" style="fill: rgb(210, 165, 122); --darkreader-inline-fill: #d3a67c;" data-darkreader-inline-fill=""/><path d="M0,0 L9,0 L9,45 L18,45 L18,54 L27,54 L27,63 L99,63 L99,72 L18,72 L18,63 L9,63 L9,54 L0,54 Z " transform="translate(45,189)" style="fill: rgb(236, 220, 205); --darkreader-inline-fill: #e4cdb7;" data-darkreader-inline-fill=""/><path d="M0,0 L9,0 L9,45 L0,45 L0,63 L-18,63 L-18,72 L-36,72 L-36,63 L-27,63 L-27,54 L-18,54 L-18,36 L-9,36 L-9,27 L0,27 Z " transform="translate(90,117)" style="fill: rgb(236, 220, 205); --darkreader-inline-fill: #e4cdb7;" data-darkreader-inline-fill=""/><path d="M0,0 L27,0 L27,9 L36,9 L36,18 L18,18 L18,9 L9,9 L9,27 L0,27 L0,36 L-9,36 L-9,27 L-27,27 L-27,18 L-9,18 L-9,9 L0,9 Z " transform="translate(189,99)" style="fill: rgb(102, 57, 49); --darkreader-inline-fill: #cc9d95;" data-darkreader-inline-fill=""/><path d="M0,0 L18,0 L18,9 L9,9 L9,18 L27,18 L27,27 L-18,27 L-18,18 L-9,18 L-9,9 L0,9 Z " transform="translate(108,144)" style="fill: rgb(102, 57, 49); --darkreader-inline-fill: #cc9d95;" data-darkreader-inline-fill=""/><path d="M0,0 L18,0 L18,9 L27,9 L27,18 L-18,18 L-18,9 L0,9 Z " transform="translate(153,189)" style="fill: rgb(102, 57, 49); --darkreader-inline-fill: #cc9d95;" data-darkreader-inline-fill=""/><path d="M0,0 L27,0 L27,18 L36,18 L36,27 L9,27 L9,18 L18,18 L18,9 L0,9 Z " transform="translate(135,153)" style="fill: rgb(102, 57, 49); --darkreader-inline-fill: #cc9d95;" data-darkreader-inline-fill=""/><path d="M0,0 L18,0 L18,9 L9,9 L9,27 L-9,27 L-9,18 L-18,18 L-18,9 L0,9 Z " transform="translate(81,54)" style="fill: rgb(210, 165, 122); --darkreader-inline-fill: #d3a67c;" data-darkreader-inline-fill=""/><path d="M0,0 L9,0 L9,9 L18,9 L18,18 L9,18 L9,27 L-9,27 L-9,18 L0,18 Z " transform="translate(180,144)" style="fill: rgb(102, 57, 49); --darkreader-inline-fill: #cc9d95;" data-darkreader-inline-fill=""/><path d="M0,0 L27,0 L27,9 L9,9 L9,18 L-9,18 L-9,9 L0,9 Z " transform="translate(126,144)" style="fill: rgb(236, 220, 205); --darkreader-inline-fill: #e4cdb7;" data-darkreader-inline-fill=""/><path d="M0,0 L36,0 L36,9 L0,9 Z " transform="translate(90,243)" style="fill: rgb(102, 57, 49); --darkreader-inline-fill: #cc9d95;" data-darkreader-inline-fill=""/><path d="M0,0 L9,0 L9,9 L18,9 L18,18 L-9,18 L-9,9 L0,9 Z " transform="translate(99,198)" style="fill: rgb(102, 57, 49); --darkreader-inline-fill: #cc9d95;" data-darkreader-inline-fill=""/><path d="M0,0 L27,0 L27,9 L0,9 Z " transform="translate(153,243)" style="fill: rgb(102, 57, 49); --darkreader-inline-fill: #cc9d95;" data-darkreader-inline-fill=""/><path d="M0,0 L18,0 L18,9 L9,9 L9,18 L0,18 Z " transform="translate(162,153)" style="fill: rgb(236, 220, 205); --darkreader-inline-fill: #e4cdb7;" data-darkreader-inline-fill=""/><path d="M0,0 L27,0 L27,9 L0,9 Z " transform="translate(144,72)" style="fill: rgb(34, 32, 52); --darkreader-inline-fill: #cdc9c3;" data-darkreader-inline-fill=""/><path d="M0,0 L18,0 L18,9 L0,9 Z " transform="translate(180,243)" style="fill: rgb(238, 195, 154); --darkreader-inline-fill: #ecbb8d;" data-darkreader-inline-fill=""/><path d="M0,0 L18,0 L18,9 L0,9 Z " transform="translate(180,234)" style="fill: rgb(102, 57, 49); --darkreader-inline-fill: #cc9d95;" data-darkreader-inline-fill=""/><path d="M0,0 L18,0 L18,9 L0,9 Z " transform="translate(162,117)" style="fill: rgb(102, 57, 49); --darkreader-inline-fill: #cc9d95;" data-darkreader-inline-fill=""/><path d="M0,0 L9,0 L9,18 L0,18 Z " transform="translate(135,108)" style="fill: rgb(102, 57, 49); --darkreader-inline-fill: #cc9d95;" data-darkreader-inline-fill=""/><path d="M0,0 L9,0 L9,18 L0,18 Z " transform="translate(117,108)" style="fill: rgb(102, 57, 49); --darkreader-inline-fill: #cc9d95;" data-darkreader-inline-fill=""/><path d="M0,0 L18,0 L18,9 L0,9 Z " transform="translate(99,99)" style="fill: rgb(102, 57, 49); --darkreader-inline-fill: #cc9d95;" data-darkreader-inline-fill=""/><path d="M0,0 L18,0 L18,9 L0,9 Z " transform="translate(126,72)" style="fill: rgb(210, 165, 122); --darkreader-inline-fill: #d3a67c;" data-darkreader-inline-fill=""/><path d="M0,0 L18,0 L18,9 L0,9 Z " transform="translate(171,63)" style="fill: rgb(34, 32, 52); --darkreader-inline-fill: #cdc9c3;" data-darkreader-inline-fill=""/><path d="M0,0 L18,0 L18,9 L0,9 Z " transform="translate(126,63)" style="fill: rgb(34, 32, 52); --darkreader-inline-fill: #cdc9c3;" data-darkreader-inline-fill=""/><path d="M0,0 L9,0 L9,18 L0,18 Z " transform="translate(90,63)" style="fill: rgb(34, 32, 52); --darkreader-inline-fill: #cdc9c3;" data-darkreader-inline-fill=""/><path d="M0,0 L9,0 L9,9 L0,9 Z " transform="translate(198,243)" style="fill: rgb(102, 57, 49); --darkreader-inline-fill: #cc9d95;" data-darkreader-inline-fill=""/><path d="M0,0 L9,0 L9,9 L0,9 Z " transform="translate(144,243)" style="fill: rgb(238, 195, 154); --darkreader-inline-fill: #ecbb8d;" data-darkreader-inline-fill=""/><path d="M0,0 L9,0 L9,9 L0,9 Z " transform="translate(135,243)" style="fill: rgb(102, 57, 49); --darkreader-inline-fill: #cc9d95;" data-darkreader-inline-fill=""/><path d="M0,0 L9,0 L9,9 L0,9 Z " transform="translate(126,243)" style="fill: rgb(238, 195, 154); --darkreader-inline-fill: #ecbb8d;" data-darkreader-inline-fill=""/><path d="M0,0 L9,0 L9,9 L0,9 Z " transform="translate(234,234)" style="fill: rgb(238, 195, 154); --darkreader-inline-fill: #ecbb8d;" data-darkreader-inline-fill=""/><path d="M0,0 L9,0 L9,9 L0,9 Z " transform="translate(144,234)" style="fill: rgb(102, 57, 49); --darkreader-inline-fill: #cc9d95;" data-darkreader-inline-fill=""/><path d="M0,0 L9,0 L9,9 L0,9 Z " transform="translate(126,234)" style="fill: rgb(102, 57, 49); --darkreader-inline-fill: #cc9d95;" data-darkreader-inline-fill=""/><path d="M0,0 L9,0 L9,9 L0,9 Z " transform="translate(81,234)" style="fill: rgb(102, 57, 49); --darkreader-inline-fill: #cc9d95;" data-darkreader-inline-fill=""/><path d="M0,0 L9,0 L9,9 L0,9 Z " transform="translate(117,216)" style="fill: rgb(102, 57, 49); --darkreader-inline-fill: #cc9d95;" data-darkreader-inline-fill=""/><path d="M0,0 L9,0 L9,9 L0,9 Z " transform="translate(126,207)" style="fill: rgb(102, 57, 49); --darkreader-inline-fill: #cc9d95;" data-darkreader-inline-fill=""/><path d="M0,0 L9,0 L9,9 L0,9 Z " transform="translate(72,207)" style="fill: rgb(102, 57, 49); --darkreader-inline-fill: #cc9d95;" data-darkreader-inline-fill=""/><path d="M0,0 L9,0 L9,9 L0,9 Z " transform="translate(90,198)" style="fill: rgb(238, 195, 154); --darkreader-inline-fill: #ecbb8d;" data-darkreader-inline-fill=""/><path d="M0,0 L9,0 L9,9 L0,9 Z " transform="translate(81,198)" style="fill: rgb(102, 57, 49); --darkreader-inline-fill: #cc9d95;" data-darkreader-inline-fill=""/><path d="M0,0 L9,0 L9,9 L0,9 Z " transform="translate(63,198)" style="fill: rgb(102, 57, 49); --darkreader-inline-fill: #cc9d95;" data-darkreader-inline-fill=""/><path d="M0,0 L9,0 L9,9 L0,9 Z " transform="translate(180,189)" style="fill: rgb(102, 57, 49); --darkreader-inline-fill: #cc9d95;" data-darkreader-inline-fill=""/><path d="M0,0 L9,0 L9,9 L0,9 Z " transform="translate(90,189)" style="fill: rgb(102, 57, 49); --darkreader-inline-fill: #cc9d95;" data-darkreader-inline-fill=""/><path d="M0,0 L9,0 L9,9 L0,9 Z " transform="translate(72,189)" style="fill: rgb(102, 57, 49); --darkreader-inline-fill: #cc9d95;" data-darkreader-inline-fill=""/><path d="M0,0 L9,0 L9,9 L0,9 Z " transform="translate(225,162)" style="fill: rgb(210, 165, 122); --darkreader-inline-fill: #d3a67c;" data-darkreader-inline-fill=""/><path d="M0,0 L9,0 L9,9 L0,9 Z " transform="translate(162,162)" style="fill: rgb(238, 195, 154); --darkreader-inline-fill: #ecbb8d;" data-darkreader-inline-fill=""/><path d="M0,0 L9,0 L9,9 L0,9 Z " transform="translate(162,144)" style="fill: rgb(102, 57, 49); --darkreader-inline-fill: #cc9d95;" data-darkreader-inline-fill=""/><path d="M0,0 L9,0 L9,9 L0,9 Z " transform="translate(180,126)" style="fill: rgb(102, 57, 49); --darkreader-inline-fill: #cc9d95;" data-darkreader-inline-fill=""/><path d="M0,0 L9,0 L9,9 L0,9 Z " transform="translate(126,126)" style="fill: rgb(102, 57, 49); --darkreader-inline-fill: #cc9d95;" data-darkreader-inline-fill=""/><path d="M0,0 L9,0 L9,9 L0,9 Z " transform="translate(180,117)" style="fill: rgb(238, 195, 154); --darkreader-inline-fill: #ecbb8d;" data-darkreader-inline-fill=""/><path d="M0,0 L9,0 L9,9 L0,9 Z " transform="translate(153,108)" style="fill: rgb(102, 57, 49); --darkreader-inline-fill: #cc9d95;" data-darkreader-inline-fill=""/><path d="M0,0 L9,0 L9,9 L0,9 Z " transform="translate(144,99)" style="fill: rgb(102, 57, 49); --darkreader-inline-fill: #cc9d95;" data-darkreader-inline-fill=""/><path d="M0,0 L9,0 L9,9 L0,9 Z " transform="translate(117,72)" style="fill: rgb(34, 32, 52); --darkreader-inline-fill: #cdc9c3;" data-darkreader-inline-fill=""/><path d="M0,0 L9,0 L9,9 L0,9 Z " transform="translate(108,72)" style="fill: rgb(210, 165, 122); --darkreader-inline-fill: #d3a67c;" data-darkreader-inline-fill=""/><path d="M0,0 L9,0 L9,9 L0,9 Z " transform="translate(108,63)" style="fill: rgb(34, 32, 52); --darkreader-inline-fill: #cdc9c3;" data-darkreader-inline-fill=""/><path d="M0,0 L9,0 L9,9 L0,9 Z " transform="translate(99,63)" style="fill: rgb(210, 165, 122); --darkreader-inline-fill: #d3a67c;" data-darkreader-inline-fill=""/><path d="M0,0 L9,0 L9,9 L0,9 Z " transform="translate(99,54)" style="fill: rgb(34, 32, 52); --darkreader-inline-fill: #cdc9c3;" data-darkreader-inline-fill=""/></svg>