<?xml version="1.0" encoding="UTF-8"?>
<!-- Generator: visioncortex VTracer -->
<svg id="svg" version="1.1" xmlns="http://www.w3.org/2000/svg" style="display: block;" viewBox="0 0 288 288"><path d="M0,0 L45,0 L45,9 L63,9 L63,18 L72,18 L72,27 L81,27 L81,45 L90,45 L90,54 L99,54 L99,63 L108,63 L108,81 L117,81 L117,135 L108,135 L108,153 L99,153 L99,162 L90,162 L90,171 L81,171 L81,180 L54,180 L54,189 L45,189 L45,198 L-9,198 L-9,189 L-54,189 L-54,180 L-63,180 L-63,171 L-72,171 L-72,162 L-81,162 L-81,144 L-90,144 L-90,72 L-81,72 L-81,54 L-72,54 L-72,45 L-63,45 L-63,36 L-54,36 L-54,27 L-45,27 L-45,18 L-27,18 L-27,9 L0,9 Z " transform="translate(135,63)" style="fill: rgb(98, 89, 102); --darkreader-inline-fill: #aca49a;" data-darkreader-inline-fill=""/><path d="M0,0 L45,0 L45,9 L63,9 L63,18 L72,18 L72,27 L81,27 L81,45 L90,45 L90,54 L99,54 L99,63 L108,63 L108,81 L117,81 L117,126 L90,126 L90,117 L72,117 L72,108 L63,108 L63,99 L54,99 L54,81 L45,81 L45,90 L0,90 L0,99 L-45,99 L-45,90 L-63,90 L-63,81 L-72,81 L-72,72 L-81,72 L-81,54 L-72,54 L-72,45 L-63,45 L-63,36 L-54,36 L-54,27 L-45,27 L-45,18 L-27,18 L-27,9 L0,9 Z " transform="translate(135,63)" style="fill: rgb(132, 126, 135); --darkreader-inline-fill: #999183;" data-darkreader-inline-fill=""/><path d="M0,0 L9,0 L9,9 L18,9 L18,18 L36,18 L36,27 L81,27 L81,18 L99,18 L99,27 L108,27 L108,36 L117,36 L117,45 L135,45 L135,54 L180,54 L180,63 L171,63 L171,72 L144,72 L144,81 L135,81 L135,90 L81,90 L81,81 L36,81 L36,72 L27,72 L27,63 L18,63 L18,54 L9,54 L9,36 L0,36 Z " transform="translate(45,171)" style="fill: rgb(68, 64, 70); --darkreader-inline-fill: #beb8b0;" data-darkreader-inline-fill=""/><path d="M0,0 L27,0 L27,9 L36,9 L36,18 L45,18 L45,27 L63,27 L63,63 L54,63 L54,54 L36,54 L36,45 L18,45 L18,36 L9,36 L9,27 L0,27 L0,18 L-9,18 L-9,9 L0,9 Z " transform="translate(162,81)" style="fill: rgb(168, 161, 172); --darkreader-inline-fill: #b0a99f;" data-darkreader-inline-fill=""/><path d="M0,0 L9,0 L9,9 L0,9 Z " transform="translate(225,216)" style="fill: rgb(68, 64, 70); --darkreader-inline-fill: #beb8b0;" data-darkreader-inline-fill=""/><path d="M0,0 L9,0 L9,9 L0,9 Z " transform="translate(216,108)" style="fill: rgb(132, 126, 135); --darkreader-inline-fill: #999183;" data-darkreader-inline-fill=""/></svg>