<?xml version="1.0" encoding="UTF-8"?>
<!-- Generator: visioncortex VTracer -->
<svg id="svg" version="1.1" xmlns="http://www.w3.org/2000/svg" style="display: block;" viewBox="0 0 288 288"><path d="M0,0 L27,0 L27,9 L45,9 L45,18 L63,18 L63,27 L72,27 L72,45 L81,45 L81,63 L90,63 L90,81 L99,81 L99,90 L117,90 L117,81 L126,81 L126,72 L171,72 L171,81 L180,81 L180,90 L189,90 L189,99 L198,99 L198,117 L189,117 L189,126 L171,126 L171,135 L135,135 L135,126 L99,126 L99,153 L108,153 L108,162 L117,162 L117,171 L126,171 L126,198 L117,198 L117,207 L108,207 L108,216 L99,216 L99,225 L72,225 L72,216 L63,216 L63,207 L54,207 L54,144 L63,144 L63,126 L72,126 L72,117 L63,117 L63,108 L45,108 L45,99 L27,99 L27,90 L9,90 L9,81 L-9,81 L-9,72 L-18,72 L-18,54 L-27,54 L-27,36 L-18,36 L-18,45 L-9,45 L-9,54 L9,54 L9,63 L27,63 L27,72 L45,72 L45,81 L63,81 L63,63 L54,63 L54,45 L45,45 L45,36 L36,36 L36,27 L27,27 L27,18 L9,18 L9,9 L0,9 Z M135,90 L135,99 L126,99 L126,108 L144,108 L144,117 L162,117 L162,108 L171,108 L171,99 L162,99 L162,90 Z M72,153 L72,198 L81,198 L81,207 L90,207 L90,198 L99,198 L99,189 L108,189 L108,180 L99,180 L99,171 L90,171 L90,153 Z " transform="translate(72,45)" style="fill: rgb(236, 50, 50); --darkreader-inline-fill: #ed4141;" data-darkreader-inline-fill=""/><path d="M0,0 L27,0 L27,9 L45,9 L45,18 L63,18 L63,27 L72,27 L72,45 L81,45 L81,63 L90,63 L90,81 L63,81 L63,63 L54,63 L54,45 L45,45 L45,36 L36,36 L36,27 L27,27 L27,18 L9,18 L9,9 L0,9 Z " transform="translate(72,45)" style="fill: rgb(203, 219, 252); --darkreader-inline-fill: #aad1fa;" data-darkreader-inline-fill=""/><path d="M0,0 L9,0 L9,9 L18,9 L18,18 L36,18 L36,27 L54,27 L54,36 L72,36 L72,45 L90,45 L90,72 L72,72 L72,63 L54,63 L54,54 L36,54 L36,45 L18,45 L18,36 L9,36 L9,18 L0,18 Z " transform="translate(45,81)" style="fill: rgb(203, 219, 252); --darkreader-inline-fill: #aad1fa;" data-darkreader-inline-fill=""/><path d="M0,0 L36,0 L36,9 L9,9 L9,54 L0,54 L0,36 L-18,36 L-18,27 L-9,27 L-9,9 L0,9 Z " transform="translate(162,162)" style="fill: rgb(134, 32, 32); --darkreader-inline-fill: #df7878;" data-darkreader-inline-fill=""/><path d="M0,0 L27,0 L27,18 L9,18 L9,9 L0,9 Z " transform="translate(72,45)" style="fill: rgb(203, 219, 252); --darkreader-inline-fill: #aad1fa;" data-darkreader-inline-fill=""/><path d="M0,0 L36,0 L36,9 L0,9 Z " transform="translate(135,126)" style="fill: rgb(134, 32, 32); --darkreader-inline-fill: #df7878;" data-darkreader-inline-fill=""/><path d="M0,0 L27,0 L27,9 L0,9 Z " transform="translate(207,126)" style="fill: rgb(134, 32, 32); --darkreader-inline-fill: #df7878;" data-darkreader-inline-fill=""/><path d="M0,0 L18,0 L18,18 L9,18 L9,9 L0,9 Z " transform="translate(117,126)" style="fill: rgb(129, 141, 166); --darkreader-inline-fill: #a49c90;" data-darkreader-inline-fill=""/><path d="M0,0 L9,0 L9,9 L18,9 L18,18 L0,18 Z " transform="translate(45,81)" style="fill: rgb(203, 219, 252); --darkreader-inline-fill: #aad1fa;" data-darkreader-inline-fill=""/><path d="M0,0 L18,0 L18,18 L9,18 L9,9 L0,9 Z " transform="translate(108,72)" style="fill: rgb(129, 141, 166); --darkreader-inline-fill: #a49c90;" data-darkreader-inline-fill=""/><path d="M0,0 L18,0 L18,9 L0,9 Z " transform="translate(171,135)" style="fill: rgb(134, 32, 32); --darkreader-inline-fill: #df7878;" data-darkreader-inline-fill=""/><path d="M0,0 L18,0 L18,9 L0,9 Z " transform="translate(99,117)" style="fill: rgb(129, 141, 166); --darkreader-inline-fill: #a49c90;" data-darkreader-inline-fill=""/><path d="M0,0 L9,0 L9,18 L0,18 Z " transform="translate(135,108)" style="fill: rgb(129, 141, 166); --darkreader-inline-fill: #a49c90;" data-darkreader-inline-fill=""/><path d="M0,0 L18,0 L18,9 L0,9 Z " transform="translate(81,108)" style="fill: rgb(129, 141, 166); --darkreader-inline-fill: #a49c90;" data-darkreader-inline-fill=""/><path d="M0,0 L18,0 L18,9 L0,9 Z " transform="translate(63,99)" style="fill: rgb(129, 141, 166); --darkreader-inline-fill: #a49c90;" data-darkreader-inline-fill=""/><path d="M0,0 L9,0 L9,18 L0,18 Z " transform="translate(126,90)" style="fill: rgb(129, 141, 166); --darkreader-inline-fill: #a49c90;" data-darkreader-inline-fill=""/><path d="M0,0 L18,0 L18,9 L0,9 Z " transform="translate(81,54)" style="fill: rgb(129, 141, 166); --darkreader-inline-fill: #a49c90;" data-darkreader-inline-fill=""/><path d="M0,0 L9,0 L9,9 L0,9 Z " transform="translate(153,252)" style="fill: rgb(134, 32, 32); --darkreader-inline-fill: #df7878;" data-darkreader-inline-fill=""/><path d="M0,0 L9,0 L9,9 L0,9 Z " transform="translate(162,243)" style="fill: rgb(134, 32, 32); --darkreader-inline-fill: #df7878;" data-darkreader-inline-fill=""/><path d="M0,0 L9,0 L9,9 L0,9 Z " transform="translate(144,243)" style="fill: rgb(134, 32, 32); --darkreader-inline-fill: #df7878;" data-darkreader-inline-fill=""/><path d="M0,0 L9,0 L9,9 L0,9 Z " transform="translate(171,234)" style="fill: rgb(134, 32, 32); --darkreader-inline-fill: #df7878;" data-darkreader-inline-fill=""/><path d="M0,0 L9,0 L9,9 L0,9 Z " transform="translate(180,225)" style="fill: rgb(134, 32, 32); --darkreader-inline-fill: #df7878;" data-darkreader-inline-fill=""/><path d="M0,0 L9,0 L9,9 L0,9 Z " transform="translate(171,216)" style="fill: rgb(134, 32, 32); --darkreader-inline-fill: #df7878;" data-darkreader-inline-fill=""/><path d="M0,0 L9,0 L9,9 L0,9 Z " transform="translate(234,153)" style="fill: rgb(134, 32, 32); --darkreader-inline-fill: #df7878;" data-darkreader-inline-fill=""/><path d="M0,0 L9,0 L9,9 L0,9 Z " transform="translate(243,144)" style="fill: rgb(134, 32, 32); --darkreader-inline-fill: #df7878;" data-darkreader-inline-fill=""/><path d="M0,0 L9,0 L9,9 L0,9 Z " transform="translate(234,135)" style="fill: rgb(134, 32, 32); --darkreader-inline-fill: #df7878;" data-darkreader-inline-fill=""/><path d="M0,0 L9,0 L9,9 L0,9 Z " transform="translate(198,135)" style="fill: rgb(134, 32, 32); --darkreader-inline-fill: #df7878;" data-darkreader-inline-fill=""/><path d="M0,0 L9,0 L9,9 L0,9 Z " transform="translate(54,90)" style="fill: rgb(129, 141, 166); --darkreader-inline-fill: #a49c90;" data-darkreader-inline-fill=""/><path d="M0,0 L9,0 L9,9 L0,9 Z " transform="translate(45,81)" style="fill: rgb(129, 141, 166); --darkreader-inline-fill: #a49c90;" data-darkreader-inline-fill=""/><path d="M0,0 L9,0 L9,9 L0,9 Z " transform="translate(99,63)" style="fill: rgb(129, 141, 166); --darkreader-inline-fill: #a49c90;" data-darkreader-inline-fill=""/><path d="M0,0 L9,0 L9,9 L0,9 Z " transform="translate(72,45)" style="fill: rgb(129, 141, 166); --darkreader-inline-fill: #a49c90;" data-darkreader-inline-fill=""/></svg>